<svg id="visual" viewBox="0 0 900 900" width="900" height="900" xmlns="http://www.w3.org/2000/svg" xmlns:xlink="http://www.w3.org/1999/xlink" version="1.1"><rect x="0" y="0" width="900" height="900" fill="#001220"></rect><defs><linearGradient id="grad1_0" x1="0%" y1="0%" x2="100%" y2="100%"><stop offset="30%" stop-color="#001220" stop-opacity="1"></stop><stop offset="70%" stop-color="#001220" stop-opacity="1"></stop></linearGradient></defs><defs><linearGradient id="grad2_0" x1="0%" y1="0%" x2="100%" y2="100%"><stop offset="30%" stop-color="#001220" stop-opacity="1"></stop><stop offset="70%" stop-color="#001220" stop-opacity="1"></stop></linearGradient></defs><g transform="translate(900, 0)"><path d="M0 572.8C-68.2 545.8 -136.4 518.8 -204 492.4C-271.6 466.1 -338.5 440.4 -396 396C-453.4 351.5 -501.3 288.3 -529.2 219.2C-557 150.1 -564.9 75 -572.8 0L0 0Z" fill="#FBAE3C"></path></g><g transform="translate(0, 900)"><path d="M0 -572.8C63.8 -525.1 127.6 -477.5 182.5 -440.7C237.5 -403.9 283.7 -378 346.5 -346.5C409.3 -315 488.7 -277.9 529.2 -219.2C569.6 -160.5 571.2 -80.3 572.8 0L0 0Z" fill="#FBAE3C"></path></g></svg>