<svg xmlns="http://www.w3.org/2000/svg" version="1.1" xmlns:xlink="http://www.w3.org/1999/xlink" xmlns:svgjs="http://svgjs.dev/svgjs" width="1440" height="560" preserveAspectRatio="none" viewBox="0 0 1440 560"><g mask="url(&quot;#SvgjsMask2665&quot;)" fill="none"><rect width="1440" height="560" x="0" y="0" fill="url(&quot;#SvgjsLinearGradient2666&quot;)"></rect><path d="M954.59 160.39 a11.13 11.13 0 1 0 22.26 0 a11.13 11.13 0 1 0 -22.26 0z" fill="#e73635"></path><path d="M1138 331.47a53.12 53.12 0 1 0-98.76-39.16z" fill="#037b0b"></path><path d="M1367.25 11.88L1402.58 11.88L1402.58 26.33L1367.25 26.33z" fill="#e73635"></path><path d="M595.84 321.58L645.89 321.58L645.89 325.47L595.84 325.47z" fill="#e73635"></path><path d="M741.27 500.29L750.06 500.29L750.06 535.82L741.27 535.82z" fill="#d3b714"></path><path d="M353.34 260.04L372.38 260.04L372.38 279.08L353.34 279.08z" fill="#037b0b"></path><path d="M520.01 199.51 a34.9 34.9 0 1 0 69.8 0 a34.9 34.9 0 1 0 -69.8 0z" stroke="#037b0b"></path><path d="M451.34 400.96 a12.34 12.34 0 1 0 24.68 0 a12.34 12.34 0 1 0 -24.68 0z" stroke="#d3b714"></path><path d="M22.53 331.51a14.17 14.17 0 1 0-26.19-10.83z" stroke="#037b0b"></path><path d="M495.48 145.3L534.75 145.3L534.75 192.98L495.48 192.98z" stroke="#d3b714"></path><path d="M346.37 479.64L349.45 479.64L349.45 482.72L346.37 482.72z" stroke="#d3b714"></path><path d="M519.94 12.08L523.5 12.08L523.5 15.64L519.94 15.64z" fill="#037b0b"></path><path d="M467.03 71.89L505.27 71.89L505.27 75.94L467.03 75.94z" fill="#037b0b"></path><path d="M1275.55 269.07 a24.16 24.16 0 1 0 48.32 0 a24.16 24.16 0 1 0 -48.32 0z" stroke="#e73635"></path><path d="M521.02 1.88 a24.81 24.81 0 1 0 49.62 0 a24.81 24.81 0 1 0 -49.62 0z" stroke="#e73635"></path><path d="M211.96 114.64 a31.25 31.25 0 1 0 62.5 0 a31.25 31.25 0 1 0 -62.5 0z" fill="#e73635"></path><path d="M786.97 442.16 a15.82 15.82 0 1 0 31.64 0 a15.82 15.82 0 1 0 -31.64 0z" fill="#e73635"></path><path d="M1343.49 228.31 a24.73 24.73 0 1 0 49.46 0 a24.73 24.73 0 1 0 -49.46 0z" fill="#d3b714"></path><path d="M1167.3 304.49L1197.77 304.49L1197.77 345.07L1167.3 345.07z" stroke="#d3b714"></path><path d="M9.35 235.23a10.32 10.32 0 1 0 4.21-20.21z" stroke="#037b0b"></path><path d="M593.91 523.37L629.52 523.37L629.52 542.89L593.91 542.89z" fill="#e73635"></path><path d="M166.07 158.52L187.25 158.52L187.25 174.93L166.07 174.93z" stroke="#d3b714"></path><path d="M904.66 212.15a22.05 22.05 0 1 0-11.84 42.48z" fill="#037b0b"></path><path d="M531.54 139.27 a34.89 34.89 0 1 0 69.78 0 a34.89 34.89 0 1 0 -69.78 0z" fill="#e73635"></path><path d="M491.21 216.64L529.21 216.64L529.21 254.64L491.21 254.64z" stroke="#e73635"></path><path d="M134.87 232.04 a45.17 45.17 0 1 0 90.34 0 a45.17 45.17 0 1 0 -90.34 0z" stroke="#e73635"></path><path d="M1048.61 65.88L1096.45 65.88L1096.45 113.72L1048.61 113.72z" fill="#d3b714"></path><path d="M1113.12 346.97L1125.4 346.97L1125.4 359.25L1113.12 359.25z" fill="#d3b714"></path><path d="M646.97 191.24 a40.43 40.43 0 1 0 80.86 0 a40.43 40.43 0 1 0 -80.86 0z" stroke="#037b0b"></path><path d="M473.53 271.38L520.09 271.38L520.09 317.94L473.53 317.94z" stroke="#d3b714"></path><path d="M672.62 409.99a31.73 31.73 0 1 0-40.26 49.05z" fill="#e73635"></path><path d="M1012.68 187.82L1032 187.82L1032 219.48L1012.68 219.48z" stroke="#037b0b"></path><path d="M1007.3 106.73 a45.22 45.22 0 1 0 90.44 0 a45.22 45.22 0 1 0 -90.44 0z" fill="#d3b714"></path></g><defs><mask id="SvgjsMask2665"><rect width="1440" height="560" fill="#ffffff"></rect></mask><linearGradient x1="15.28%" y1="-39.29%" x2="84.72%" y2="139.29%" gradientUnits="userSpaceOnUse" id="SvgjsLinearGradient2666"><stop stop-color="#0e2a47" offset="0"></stop><stop stop-color="rgba(182, 145, 237, 1)" offset="1"></stop></linearGradient></defs></svg>